<svg xmlns="http://www.w3.org/2000/svg" width="32" height="32" viewBox="0 0 32 32" fill="none">
  <circle cx="16" cy="16" r="16" fill="#1A1A1A"/>
  <path d="M22.5 11.5c-.6.3-1.2.5-1.9.6.7-.4 1.2-1 1.4-1.8-.6.4-1.3.7-2.1.8-.6-.6-1.5-1-2.4-1-1.8 0-3.3 1.5-3.3 3.3 0 .3 0 .5.1.7-2.7-.1-5.2-1.4-6.8-3.4-.3.5-.5 1-.5 1.6 0 1.1.6 2.1 1.5 2.7-.5 0-1-.2-1.5-.4v0c0 1.6 1.1 2.9 2.6 3.2-.3.1-.5.1-.8.1-.2 0-.4 0-.6-.1.4 1.2 1.5 2.1 2.9 2.2-1.1.8-2.4 1.3-3.8 1.3-.2 0-.5 0-.7 0 1.4.9 3 1.4 4.7 1.4 5.6 0 8.7-4.7 8.7-8.7v-.4c.6-.4 1.1-1 1.5-1.6z" fill="#FFFFFF"/>
</svg>
