<svg xmlns="http://www.w3.org/2000/svg" width="40" height="46" viewBox="0 0 40 46" fill="#1A1A1A">
  <!-- "O" character: tall oval ring -->
  <path d="M12.2 1C5.5 1 0 9.8 0 21.2c0 11.4 5.5 20.2 12.2 20.2s12.2-8.8 12.2-20.2C24.4 9.8 18.9 1 12.2 1zm0 7.4c3.6 0 5.8 5 5.8 12.8s-2.2 12.8-5.8 12.8S6.4 28 6.4 21.2s2.2-12.8 5.8-12.8z"/>
  <!-- "n" character -->
  <path d="M22.6 11.8v29.6h6.2V21c.6-2.2 2-3.6 3.6-3.6 1.8 0 2.6 1.4 2.6 3.8v20.2H40V18.8c0-5.4-2.8-8.4-6.6-8.4-2.8 0-5.2 1.8-6.8 4.6V11.8h-4z"/>
</svg>
